<mxfile host="app.diagrams.net" modified="2022-04-19T07:42:13.343Z" agent="5.0 (X11; Linux x86_64) AppleWebKit/537.36 (KHTML, like Gecko) Chrome/100.0.4896.127 Safari/537.36" etag="XXeF217_-3RmbEC9yOLJ" version="17.4.4" type="github">
  <diagram name="Page-1" id="74b105a0-9070-1c63-61bc-23e55f88626e">
    <mxGraphModel dx="2018" dy="1104" grid="1" gridSize="10" guides="1" tooltips="1" connect="1" arrows="1" fold="1" page="1" pageScale="1.5" pageWidth="1169" pageHeight="826" background="none" math="0" shadow="0">
      <root>
        <mxCell id="0" style=";html=1;" />
        <mxCell id="1" style=";html=1;" parent="0" />
        <mxCell id="s5AODR6MLD7gWB9dPqhO-4" value="" style="endArrow=none;dashed=1;html=1;dashPattern=1 3;strokeWidth=2;rounded=0;" edge="1" parent="1">
          <mxGeometry width="50" height="50" relative="1" as="geometry">
            <mxPoint x="170" y="290" as="sourcePoint" />
            <mxPoint x="530" y="290" as="targetPoint" />
          </mxGeometry>
        </mxCell>
        <mxCell id="s5AODR6MLD7gWB9dPqhO-5" value="" style="endArrow=none;dashed=1;html=1;dashPattern=1 3;strokeWidth=2;rounded=0;" edge="1" parent="1">
          <mxGeometry width="50" height="50" relative="1" as="geometry">
            <mxPoint x="160" y="340" as="sourcePoint" />
            <mxPoint x="160" y="10" as="targetPoint" />
          </mxGeometry>
        </mxCell>
        <mxCell id="s5AODR6MLD7gWB9dPqhO-6" value="Web Browser" style="rounded=1;whiteSpace=wrap;html=1;" vertex="1" parent="1">
          <mxGeometry x="20" y="40" width="120" height="60" as="geometry" />
        </mxCell>
        <mxCell id="s5AODR6MLD7gWB9dPqhO-7" value="&lt;b&gt;&lt;font style=&quot;font-size: 15px&quot;&gt;User Touch Point&lt;/font&gt;&lt;/b&gt;" style="text;html=1;resizable=0;autosize=1;align=center;verticalAlign=middle;points=[];fillColor=none;strokeColor=none;rounded=0;" vertex="1" parent="1">
          <mxGeometry x="10" y="10" width="140" height="20" as="geometry" />
        </mxCell>
        <mxCell id="s5AODR6MLD7gWB9dPqhO-8" value="Email" style="rounded=1;whiteSpace=wrap;html=1;" vertex="1" parent="1">
          <mxGeometry x="20" y="140" width="120" height="60" as="geometry" />
        </mxCell>
        <mxCell id="s5AODR6MLD7gWB9dPqhO-9" value="API Client" style="rounded=1;whiteSpace=wrap;html=1;" vertex="1" parent="1">
          <mxGeometry x="20" y="210" width="120" height="60" as="geometry" />
        </mxCell>
        <mxCell id="s5AODR6MLD7gWB9dPqhO-10" value="&lt;b&gt;&lt;font style=&quot;font-size: 15px&quot;&gt;App Server&lt;/font&gt;&lt;/b&gt;" style="text;html=1;resizable=0;autosize=1;align=center;verticalAlign=middle;points=[];fillColor=none;strokeColor=none;rounded=0;" vertex="1" parent="1">
          <mxGeometry x="172" y="10" width="100" height="20" as="geometry" />
        </mxCell>
        <mxCell id="s5AODR6MLD7gWB9dPqhO-11" value="Reverse&lt;br&gt;Proxy" style="rounded=0;whiteSpace=wrap;html=1;fontSize=15;dashed=1;fillColor=#fff2cc;strokeColor=#d6b656;" vertex="1" parent="1">
          <mxGeometry x="172" y="70" width="98" height="60" as="geometry" />
        </mxCell>
        <mxCell id="s5AODR6MLD7gWB9dPqhO-12" value="API&lt;br&gt;Orchestrator" style="rounded=0;whiteSpace=wrap;html=1;fontSize=15;fillColor=#fff2cc;strokeColor=#d6b656;" vertex="1" parent="1">
          <mxGeometry x="172" y="210" width="98" height="60" as="geometry" />
        </mxCell>
        <mxCell id="s5AODR6MLD7gWB9dPqhO-15" value="Web&lt;br&gt;UI" style="rounded=0;whiteSpace=wrap;html=1;fontSize=15;fillColor=#fff2cc;strokeColor=#d6b656;" vertex="1" parent="1">
          <mxGeometry x="172" y="140" width="98" height="60" as="geometry" />
        </mxCell>
        <mxCell id="s5AODR6MLD7gWB9dPqhO-18" value="Message Queue/Topic" style="sketch=0;aspect=fixed;pointerEvents=1;shadow=0;dashed=0;html=1;strokeColor=none;labelPosition=center;verticalLabelPosition=bottom;verticalAlign=top;align=center;fillColor=#00188D;shape=mxgraph.azure.queue_generic;fontSize=15;" vertex="1" parent="1">
          <mxGeometry x="380" y="316" width="100" height="30" as="geometry" />
        </mxCell>
        <mxCell id="s5AODR6MLD7gWB9dPqhO-19" value="&lt;br&gt;&lt;br&gt;&lt;br&gt;&lt;br&gt;RDBMS" style="shape=datastore;whiteSpace=wrap;html=1;fontSize=15;" vertex="1" parent="1">
          <mxGeometry x="190" y="300" width="40" height="40" as="geometry" />
        </mxCell>
        <mxCell id="s5AODR6MLD7gWB9dPqhO-20" value="File/Object Storage" style="sketch=0;outlineConnect=0;fontColor=#232F3E;gradientColor=none;fillColor=#232F3D;strokeColor=none;dashed=0;verticalLabelPosition=bottom;verticalAlign=top;align=center;html=1;fontSize=12;fontStyle=0;aspect=fixed;pointerEvents=1;shape=mxgraph.aws4.disk;" vertex="1" parent="1">
          <mxGeometry x="272" y="300" width="50" height="50" as="geometry" />
        </mxCell>
        <mxCell id="s5AODR6MLD7gWB9dPqhO-24" value="" style="endArrow=none;dashed=1;html=1;dashPattern=1 3;strokeWidth=2;rounded=0;" edge="1" parent="1">
          <mxGeometry width="50" height="50" relative="1" as="geometry">
            <mxPoint x="170" y="40" as="sourcePoint" />
            <mxPoint x="270" y="40" as="targetPoint" />
          </mxGeometry>
        </mxCell>
        <mxCell id="s5AODR6MLD7gWB9dPqhO-25" value="" style="endArrow=none;dashed=1;html=1;dashPattern=1 3;strokeWidth=2;rounded=0;" edge="1" parent="1">
          <mxGeometry width="50" height="50" relative="1" as="geometry">
            <mxPoint x="280" y="40" as="sourcePoint" />
            <mxPoint x="540" y="40" as="targetPoint" />
          </mxGeometry>
        </mxCell>
        <mxCell id="s5AODR6MLD7gWB9dPqhO-27" value="Market&lt;br&gt;Data" style="shape=process;whiteSpace=wrap;html=1;backgroundOutline=1;fontSize=15;" vertex="1" parent="1">
          <mxGeometry x="300" y="51" width="90" height="50" as="geometry" />
        </mxCell>
        <mxCell id="s5AODR6MLD7gWB9dPqhO-28" value="Order" style="shape=process;whiteSpace=wrap;html=1;backgroundOutline=1;fontSize=15;" vertex="1" parent="1">
          <mxGeometry x="300" y="111" width="90" height="50" as="geometry" />
        </mxCell>
        <mxCell id="s5AODR6MLD7gWB9dPqhO-29" value="Algo&lt;br&gt;Engine" style="shape=process;whiteSpace=wrap;html=1;backgroundOutline=1;fontSize=15;" vertex="1" parent="1">
          <mxGeometry x="420" y="130" width="90" height="50" as="geometry" />
        </mxCell>
        <mxCell id="s5AODR6MLD7gWB9dPqhO-30" value="Trade" style="shape=process;whiteSpace=wrap;html=1;backgroundOutline=1;fontSize=15;" vertex="1" parent="1">
          <mxGeometry x="300" y="171" width="90" height="50" as="geometry" />
        </mxCell>
        <mxCell id="s5AODR6MLD7gWB9dPqhO-31" value="Position" style="shape=process;whiteSpace=wrap;html=1;backgroundOutline=1;fontSize=15;" vertex="1" parent="1">
          <mxGeometry x="300" y="231" width="90" height="50" as="geometry" />
        </mxCell>
      </root>
    </mxGraphModel>
  </diagram>
</mxfile>
